<svg width="58" height="40" viewBox="0 0 58 40" fill="none" xmlns="http://www.w3.org/2000/svg">
<g filter="url(#filter0_d_64_190)">
<mask id="mask0_64_190" style="mask-type:alpha" maskUnits="userSpaceOnUse" x="4" y="0" width="50" height="32">
<path d="M11.511 0.16954C9.4288 0.546295 7.41378 1.68598 6.08962 3.24951C5.38915 4.08779 4.52557 5.72667 4.2569 6.76275C4.10338 7.30904 4.0458 7.8365 4.03621 8.64652C4.02661 9.6826 4.0458 9.82388 4.27609 10.3042C4.63112 11.0483 5.13968 11.557 5.87852 11.9149L6.52141 12.2257H50.5641L51.1015 11.9808C51.8595 11.6323 52.3776 11.1331 52.7423 10.4079C53.0493 9.79563 53.0589 9.74853 53.0493 8.64652C53.0301 7.30904 52.819 6.41425 52.2433 5.22747C51.2838 3.24951 49.9116 1.87436 47.9734 0.951306C46.774 0.386174 45.7664 0.131864 44.4519 0.0565132L43.4156 0V2.75031C43.4156 5.32166 43.406 5.51946 43.2237 5.86796C43.003 6.29181 42.456 6.62147 41.9763 6.62147C41.4965 6.62147 40.9496 6.29181 40.7289 5.86796C40.5466 5.51946 40.537 5.32166 40.537 2.75973V0.0282566H36.6988V2.75973C36.6988 5.32166 36.6892 5.51946 36.5069 5.86796C36.2862 6.29181 35.7393 6.62147 35.2595 6.62147C34.7797 6.62147 34.2328 6.29181 34.0121 5.86796C33.8298 5.51946 33.8202 5.32166 33.8202 2.75973V0.0282566H29.9821V2.75973C29.9821 5.32166 29.9725 5.51946 29.7902 5.86796C29.5695 6.29181 29.0225 6.62147 28.5428 6.62147C28.063 6.62147 27.5161 6.29181 27.2954 5.86796C27.1131 5.51946 27.1035 5.32166 27.1035 2.75973V0.0282566H23.2653V2.75973C23.2653 5.32166 23.2557 5.51946 23.0734 5.86796C22.8527 6.29181 22.3058 6.62147 21.826 6.62147C21.3462 6.62147 20.7993 6.29181 20.5786 5.86796C20.3963 5.51946 20.3867 5.32166 20.3867 2.75973V0.0282566H16.5486V2.75973C16.5486 5.32166 16.539 5.51946 16.3567 5.86796C16.136 6.29181 15.589 6.62147 15.1093 6.62147C14.6295 6.62147 14.0826 6.29181 13.8619 5.86796C13.6795 5.51946 13.67 5.32166 13.67 2.75973V0.0282566L12.9311 0.0376755C12.5185 0.0376755 11.8852 0.103608 11.511 0.16954Z" fill="black"/>
<path d="M6.85725 17.9241H16.2127L13.3341 15.0984H6.85725V17.9241Z" fill="black"/>
<path d="M22.4497 20.0999C25.2516 22.8502 27.6984 25.1766 27.8903 25.2802C28.0918 25.3744 28.3796 25.4592 28.5428 25.4592C28.7059 25.4592 28.9937 25.3744 29.1953 25.2802C29.3872 25.1766 31.834 22.8502 34.6358 20.0999L39.7214 15.0984H17.3642L22.4497 20.0999Z" fill="black"/>
<path d="M40.8728 17.9241H50.2283V15.0984H43.7514L40.8728 17.9241Z" fill="black"/>
<path d="M6.40626 20.8911C4.51598 21.4656 3.66199 23.1516 4.12257 25.3744C4.69829 28.2189 6.89563 30.3853 9.75504 30.9598C10.4171 31.0917 12.4705 31.1105 28.5428 31.1105C44.615 31.1105 46.6684 31.0917 47.3305 30.9598C50.1995 30.3853 52.3776 28.2189 52.963 25.3744C53.3852 23.3305 52.7231 21.7953 51.1015 21.0418L50.5641 20.7969L38.0038 20.7404L34.5015 24.1688C30.6537 27.9269 30.5866 27.9835 29.224 28.2095C28.6963 28.2943 28.3988 28.2943 27.8807 28.2095C26.5085 27.9835 26.4318 27.9269 22.5936 24.1688L19.0817 20.7498L12.9503 20.7592C8.15262 20.7592 6.72291 20.7874 6.40626 20.8911Z" fill="black"/>
</mask>
<g mask="url(#mask0_64_190)">
<rect x="1.51855" y="-5.12787" width="59.0532" height="41.5192" fill="white"/>
</g>
</g>
<defs>
<filter id="filter0_d_64_190" x="0" y="0" width="57.0874" height="39.1105" filterUnits="userSpaceOnUse" color-interpolation-filters="sRGB">
<feFlood flood-opacity="0" result="BackgroundImageFix"/>
<feColorMatrix in="SourceAlpha" type="matrix" values="0 0 0 0 0 0 0 0 0 0 0 0 0 0 0 0 0 0 127 0" result="hardAlpha"/>
<feOffset dy="4"/>
<feGaussianBlur stdDeviation="2"/>
<feComposite in2="hardAlpha" operator="out"/>
<feColorMatrix type="matrix" values="0 0 0 0 0 0 0 0 0 0 0 0 0 0 0 0 0 0 0.25 0"/>
<feBlend mode="normal" in2="BackgroundImageFix" result="effect1_dropShadow_64_190"/>
<feBlend mode="normal" in="SourceGraphic" in2="effect1_dropShadow_64_190" result="shape"/>
</filter>
</defs>
</svg>
