<?xml version="1.0" standalone="no"?>
<!DOCTYPE svg PUBLIC "-//W3C//DTD SVG 20010904//EN"
 "http://www.w3.org/TR/2001/REC-SVG-20010904/DTD/svg10.dtd">
<svg version="1.0" xmlns="http://www.w3.org/2000/svg"
 width="512.000000pt" height="512.000000pt" viewBox="0 0 512.000000 512.000000"
 preserveAspectRatio="xMidYMid meet">

<g transform="translate(0.000000,512.000000) scale(0.100000,-0.100000)"
fill="#000000" stroke="none">
<path d="M1746 3520 c-127 -41 -189 -185 -130 -304 9 -17 156 -172 327 -343
l312 -313 -312 -312 c-171 -172 -319 -329 -329 -348 -23 -45 -24 -143 -2 -185
21 -39 64 -82 103 -103 42 -22 140 -21 185 2 19 10 176 158 348 329 l312 312
313 -312 c171 -171 328 -319 347 -329 45 -23 143 -24 185 -2 39 21 82 64 103
103 22 42 21 140 -2 185 -10 19 -158 176 -329 348 l-312 312 312 313 c171 171
319 328 329 347 23 45 24 143 2 185 -21 39 -64 82 -103 103 -42 22 -140 21
-185 -2 -19 -10 -176 -158 -347 -329 l-313 -312 -312 312 c-172 171 -328 318
-346 327 -40 21 -117 29 -156 16z"/>
</g>
</svg>
