<svg width="53" height="53" viewBox="0 0 53 53" fill="none" xmlns="http://www.w3.org/2000/svg">
<g filter="url(#filter0_d_64_189)">
<mask id="mask0_64_189" style="mask-type:alpha" maskUnits="userSpaceOnUse" x="4" y="0" width="45" height="45">
<path d="M43.4545 0.135256C43.2867 0.221936 42.907 0.490645 42.6156 0.724682C40.9731 2.04222 37.8295 3.68915 34.2267 5.11937C32.2663 5.8995 31.6658 6.18554 30.8711 6.70562C29.0079 7.91915 27.7186 9.70476 27.1446 11.8458C26.8532 12.9293 26.8179 14.7842 27.0652 15.9371C27.2594 16.8559 27.648 18.0607 27.9924 18.8235L28.2573 19.4043H28.7165C29.105 19.4043 29.2198 19.3609 29.5024 19.1182C29.679 18.9709 30.1558 18.5722 30.5532 18.2341C32.2045 16.8559 33.8734 14.7409 35.092 12.4959C35.5512 11.6464 35.7013 11.447 35.9927 11.2737C36.8846 10.7709 38.0679 11.4297 38.0679 12.4439C38.0679 12.7472 37.9531 13.0593 37.5381 13.8394C36.6462 15.573 35.5601 17.0899 34.0147 18.7889L33.4584 19.4043H41.5294L42.5273 18.4248C44.5759 16.4138 45.4148 14.8969 45.9182 12.2445C46.4039 9.73077 46.4039 7.23437 45.9182 3.88851C45.6886 2.24159 45.3707 0.898042 45.1588 0.611997C44.7261 0.0399074 44.0196 -0.159457 43.4545 0.135256Z" fill="black"/>
<path d="M10.7994 6.40225C10.3756 6.66229 10.199 7.01768 9.98703 8.08384C9.2806 11.7331 9.47487 15.3043 10.5169 17.324C10.7641 17.8094 11.3116 18.5548 11.7796 19.0316L12.1417 19.4043H17.7755L17.4576 19.0576C16.4156 17.9221 15.197 15.8851 15.197 15.2783C15.197 14.0995 16.5922 13.432 17.5018 14.1775C17.6519 14.3075 17.8991 14.6629 18.0404 14.9749C18.1817 15.2783 18.4643 15.7897 18.685 16.1018C19.153 16.7952 20.5041 18.2688 21.2812 18.9276L21.8375 19.413L23.0031 19.361L23.2415 18.6242C24.0893 16.0151 23.5948 13.5707 21.8728 11.7851C21.1222 11.005 20.301 10.5109 18.7204 9.86946C15.9829 8.75995 14.3404 7.91915 13.0159 6.94833C12.645 6.67096 12.2476 6.40225 12.1505 6.34157C11.8679 6.16821 11.135 6.20288 10.7994 6.40225Z" fill="black"/>
<path d="M4.04415 22.5855C4.65345 28.8784 8.32692 34.608 13.9961 38.1012C15.0557 38.7513 16.292 39.3841 17.2898 39.7742L18.0139 40.0602L18.0404 41.7765C18.0669 43.6488 18.0846 43.7181 18.6762 44.1429C18.9146 44.3249 18.9765 44.3249 26.5 44.3249C34.0235 44.3249 34.0854 44.3249 34.3238 44.1429C34.9154 43.7181 34.9331 43.6488 34.9596 41.7678L34.9861 40.0515L35.4011 39.9042C36.708 39.4274 38.4564 38.5 39.8781 37.5291C44.6201 34.3133 47.852 29.3985 48.7439 24.0417C48.8411 23.4696 48.9382 22.8195 48.9558 22.5855L49 22.1781H4L4.04415 22.5855Z" fill="black"/>
</mask>
<g mask="url(#mask0_64_189)">
<rect x="-1.32812" y="-1.80048" width="53.5846" height="52.0623" fill="white"/>
</g>
</g>
<defs>
<filter id="filter0_d_64_189" x="0" y="0" width="53" height="52.3249" filterUnits="userSpaceOnUse" color-interpolation-filters="sRGB">
<feFlood flood-opacity="0" result="BackgroundImageFix"/>
<feColorMatrix in="SourceAlpha" type="matrix" values="0 0 0 0 0 0 0 0 0 0 0 0 0 0 0 0 0 0 127 0" result="hardAlpha"/>
<feOffset dy="4"/>
<feGaussianBlur stdDeviation="2"/>
<feComposite in2="hardAlpha" operator="out"/>
<feColorMatrix type="matrix" values="0 0 0 0 0 0 0 0 0 0 0 0 0 0 0 0 0 0 0.25 0"/>
<feBlend mode="normal" in2="BackgroundImageFix" result="effect1_dropShadow_64_189"/>
<feBlend mode="normal" in="SourceGraphic" in2="effect1_dropShadow_64_189" result="shape"/>
</filter>
</defs>
</svg>
